<svg xmlns="http://www.w3.org/2000/svg" id="Filled" width="512" height="512"><circle cx="256" cy="256" r="232" fill="#ffd754"/><circle cx="256" cy="256" r="184" fill="#edb90c"/><path d="M74.782 232a8 8 0 01-7.889-9.383A192.259 192.259 0 01222.618 66.893a8 8 0 112.764 15.76A176.212 176.212 0 0082.653 225.382 8 8 0 0174.782 232zm213.209 213.229a8 8 0 01-1.373-15.882 176.212 176.212 0 00142.729-142.729 8 8 0 1115.76 2.764 192.259 192.259 0 01-155.725 155.725 8.048 8.048 0 01-1.391.122z"/><circle cx="72" cy="256" r="8"/><circle cx="256" cy="72" r="8"/><circle cx="440" cy="256" r="8"/><circle cx="256" cy="440" r="8"/><path d="M256 496A240 240 0 0186.294 86.294a240 240 0 01339.412 339.412A238.432 238.432 0 01256 496zm0-464A224 224 0 0097.608 414.392 224 224 0 00414.392 97.608 222.533 222.533 0 00256 32z"/><path d="M306.055 344.341C320.207 333.728 328 319.4 328 304a8 8 0 00-16 0c0 22.056-25.122 40-56 40s-56-17.944-56-40c0-9 4.183-17.31 11.231-24H336a8 8 0 000-16h-80c18.814 0 36.591-5.561 50.055-15.659.148-.111.286-.229.433-.341H336a8 8 0 000-16h-14.851A45.942 45.942 0 00328 208c0-15.4-7.793-29.728-21.945-40.341C292.591 157.561 274.814 152 256 152s-36.591 5.561-50.055 15.659C191.793 178.272 184 192.6 184 208a8 8 0 0016 0c0-22.056 25.122-40 56-40s56 17.944 56 40c0 9-4.183 17.31-11.231 24H176a8 8 0 000 16h80c-18.814 0-36.591 5.561-50.055 15.659-.148.111-.286.229-.433.341H176a8 8 0 000 16h14.851A45.942 45.942 0 00184 304c0 15.4 7.793 29.728 21.945 40.341C219.409 354.439 237.186 360 256 360s36.591-5.561 50.055-15.659z"/></svg>