<svg height="652" viewBox="-6 0 489 489.48" width="652" xmlns="http://www.w3.org/2000/svg"><path d="M443.57 472.82c.035 4.63-3.691 8.407-8.32 8.442l-25.43.187a8.378 8.378 0 01-8.441-8.32l-.219-29.14-.012-1.317 42.192-.363.012 1.363zm0 0" fill="#f8ec7d"/><path d="M402.648 378.238c.075 9.59 7.903 17.301 17.493 17.23 9.586-.07 17.3-7.902 17.226-17.488-.07-9.59-7.898-17.3-17.488-17.23-9.586.074-17.297 7.902-17.23 17.488zm38.813-63.207c17.309-.12 29.867 15.309 30 32.63l-9.7 77.76c.044 9.24-7.39 16.782-16.632 16.868l-1.79.02-42.19.363-154.188 1.348h-.98V316.719h1l79.16-.688 69.449-.61 45.87-.401zm0 0" fill="#6fe3ff"/><path d="M419.879 360.75c9.594-.074 17.426 7.64 17.5 17.234.074 9.59-7.645 17.422-17.234 17.496-9.594.07-17.426-7.648-17.497-17.242-.066-9.586 7.645-17.414 17.23-17.488zm-11.551-105.828l33.192 60.098h-.06l-45.87.402-.012-1.211a34.725 34.725 0 00-52.324-29.719 34.731 34.731 0 00-17.125 30.238l.012 1.301-79.16.688h-1V222.91h1.007l65.024-.62 54.976-.528c18.793-.14 31.063 15.039 41.34 33.16zm0 0" fill="#f8ec7d"/><path d="M395.59 315.422l-69.45.61-.011-1.302a34.731 34.731 0 0117.125-30.238 34.725 34.725 0 0152.324 29.719zm-83.578-93.132l-65.024.62h-1.008v-27.922h38.739c15.074.004 27.289 12.219 27.293 27.293zm0 0" fill="#6fe3ff"/><path d="M226.14 6c16.626.008 30.098 13.484 30.098 30.11v58.07l-60.207-.961v-57.11C196.031 19.535 209.426 6.08 226 6zm0 0" fill="#bcf1f7"/><path d="M226 126.871c11.035 0 19.98 8.945 19.98 19.98V463.5c-.003 11.035-8.945 19.977-19.98 19.98H26.219c-11.035 0-19.98-8.945-19.98-19.98V146.852c-.005-11.04 8.945-19.985 19.98-19.98H56.19v29.968H36.21v59.93h179.8v-59.93h-19.98v-29.97zm-9.988 314.649v-39.95H176.05v39.95zm0-69.918V331.64H176.05v39.96zm0-69.922v-39.961H176.05v39.96zM143.09 441.52v-39.95h-39.961v39.95zm0-69.918V331.64h-39.961v39.96zm0-69.922v-39.961h-39.961v39.96zM76.16 441.52v-39.95H36.21v39.95zm0-69.918V331.64H36.21v39.96zm0-69.922v-39.961H36.21v39.96zm0 0" fill="#e48e66"/><path d="M176.05 401.57h39.962v39.95H176.05zm0-69.93h39.962v39.962H176.05zm0-69.921h39.962v39.96H176.05zm19.981-104.879h19.98v59.93h-19.98zm-92.902 244.73h39.96v39.95h-39.96zm0-69.93h39.96v39.962h-39.96zm0-69.921h39.96v39.96h-39.96zm0 0" fill="#6fe3ff"/><path d="M226 6c-16.574.078-29.969 13.535-29.969 30.11v180.66H56.191V35.969C56.187 19.422 69.601 6.004 86.148 6zM36.21 401.57h39.95v39.95H36.21zm0-69.93h39.95v39.962H36.21zm0-69.921h39.95v39.96H36.21zm0 0" fill="#6fe3ff"/><path d="M36.21 156.84h19.981v59.93h-19.98zm0 0" fill="#6fe3ff"/><g fill="#63316d"><path d="M26.219 489.48H226c14.34-.015 25.965-11.64 25.98-25.98v-13.523l143.215-1.254.184 24.445c.05 7.906 6.48 14.289 14.39 14.281h.098l25.426-.187c7.945-.055 14.34-6.543 14.281-14.489l-.187-24.914c10.566-2.086 18.234-11.285 18.375-22.058l9.656-77.403c.031-.261.047-.523.047-.785-.152-20.039-14.32-36.48-32.293-38.402l-31.621-57.25c-9.57-16.871-23.473-36.203-46.317-36.203h-.296l-49.489.48c-2.93-15.773-16.683-27.222-32.73-27.242H251.98v-42.144c-.015-14.344-11.64-25.965-25.98-25.98h-23.969V99.315l54.114.864a5.877 5.877 0 004.304-1.723 6.005 6.005 0 001.79-4.277V36.11c0-19.938-16.16-36.102-36.098-36.11H86.148C66.297.023 50.211 16.117 50.191 35.969v84.902H26.22c-14.34.016-25.961 11.637-25.98 25.98V463.5c.019 14.34 11.64 25.965 25.98 25.98zm410.664-14.925a2.375 2.375 0 01-1.68.707l-25.422.187h-.015a2.379 2.379 0 01-2.387-2.363l-.184-24.469 30.192-.258.183 24.5a2.383 2.383 0 01-.687 1.696zm28.57-127.227l-9.648 77.352a5.842 5.842 0 00-.043.785c.02 5.937-4.766 10.777-10.703 10.824l-43.965.383-149.114 1.305V322.676l189.524-1.656v.007h.144c12.922.004 23.516 11.73 23.805 26.301zm-132.969-37.355c2.2-13.875 14.11-24.13 28.16-24.235h.211c13.934.024 25.848 10.024 28.286 23.739zm34.551-82.211h.215c13.156 0 23.895 9.023 35.828 30.058l28.324 51.29-30.148.261c-2.59-20.344-19.887-35.601-40.395-35.633h-.3c-20.68.157-37.957 15.782-40.184 36.34l-68.39.602v-81.817zm-82.316-26.774a21.32 21.32 0 0120.43 15.364l-53.172.511v-15.875zM202.03 162.84h7.98v47.93h-7.98zM226.141 12c13.308.008 24.097 10.8 24.097 24.11v51.976l-48.207-.77V36.11C202.055 22.86 212.75 12.105 226 12zM62.19 35.969C62.202 22.742 72.92 12.019 86.147 12h113.157a35.939 35.939 0 00-9.274 24.11v174.66H62.191zm-19.98 174.8v-47.93h7.98v47.93zm-29.973-63.917c.012-7.72 6.266-13.97 13.98-13.98H50.19v17.968H36.21c-3.316 0-6 2.687-6 6v59.93a6 6 0 006 6h179.8c3.313 0 6-2.688 6-6v-59.93a6 6 0 00-6-6h-13.98v-17.97H226c7.715.012 13.969 6.262 13.98 13.98V463.5c-.011 7.715-6.265 13.969-13.98 13.98H26.219c-7.715-.011-13.969-6.265-13.98-13.98zm0 0"/><path d="M36.21 307.68h39.95c3.313 0 6-2.688 6-6v-39.961a6 6 0 00-6-6H36.21a6 6 0 00-6 6v39.96a6 6 0 006 6zm6-39.961h27.95v27.96H42.21zm60.919 39.961h39.96c3.313 0 6-2.688 6-6v-39.961a6 6 0 00-6-6h-39.96a6 6 0 00-6 6v39.96a6 6 0 006 6zm6-39.961h27.96v27.96h-27.96zm66.921 39.961h39.962c3.312 0 6-2.688 6-6v-39.961c0-3.313-2.688-6-6-6H176.05c-3.317 0-6 2.687-6 6v39.96c0 3.313 2.683 6 6 6zm6-39.961h27.962v27.96H182.05zM36.21 377.602h39.95c3.313 0 6-2.688 6-6V331.64a6 6 0 00-6-6H36.21a6 6 0 00-6 6v39.96a6 6 0 006 6zm6-39.961h27.95v27.96H42.21zm60.919 39.961h39.96c3.313 0 6-2.688 6-6V331.64a6 6 0 00-6-6h-39.96a6 6 0 00-6 6v39.96a6 6 0 006 6zm6-39.961h27.96v27.96h-27.96zm66.921 39.961h39.962c3.312 0 6-2.688 6-6V331.64c0-3.313-2.688-6-6-6H176.05c-3.317 0-6 2.687-6 6v39.96c0 3.313 2.683 6 6 6zm6-39.961h27.962v27.96H182.05zM36.21 447.52h39.95c3.313 0 6-2.688 6-6v-39.95c0-3.312-2.687-6-6-6H36.21a6 6 0 00-6 6v39.95a6 6 0 006 6zm6-39.95h27.95v27.95H42.21zm60.919 39.95h39.96c3.313 0 6-2.688 6-6v-39.95c0-3.312-2.687-6-6-6h-39.96c-3.313 0-6 2.688-6 6v39.95c0 3.312 2.687 6 6 6zm6-39.95h27.96v27.95h-27.96zm66.921 39.95h39.962c3.312 0 6-2.688 6-6v-39.95c0-3.312-2.688-6-6-6H176.05c-3.317 0-6 2.688-6 6v39.95c0 3.312 2.683 6 6 6zm6-39.95h27.962v27.95H182.05zM93.063 180.129h-.106c-4.89-.031-8.84-4-8.848-8.89a6.001 6.001 0 00-12 0 20.92 20.92 0 0014.903 20v3.75c0 3.312 2.683 6 6 6 3.312 0 6-2.688 6-6v-3.75c9.925-2.977 16.168-12.782 14.664-23.036-1.504-10.254-10.301-17.855-20.664-17.855-4.918.007-8.907-3.977-8.91-8.895a8.9 8.9 0 018.894-8.906 8.9 8.9 0 018.902 8.902c0 3.313 2.688 6 6 6 3.317 0 6-2.687 6-6a20.914 20.914 0 00-14.886-20v-3.07c0-3.313-2.688-6-6-6-3.317 0-6 2.687-6 6v3.066c-9.93 2.98-16.176 12.79-14.672 23.043 1.504 10.258 10.305 17.86 20.672 17.86 4.87.035 8.808 3.988 8.824 8.863a8.894 8.894 0 01-8.774 8.914zm66.667-108.66h12.442a6 6 0 100-12H159.73a6 6 0 100 12zm-81.62 0h60.12a6 6 0 000-12H78.11a6 6 0 000 12zm71.628 119.34h22.434a6 6 0 100-12h-22.434a6 6 0 100 12zm-16.636-12h-3.34c-3.317 0-6 2.687-6 6 0 3.316 2.683 6 6 6h3.34a6 6 0 100-12zM78.11 101.441h60.12a6 6 0 000-12H78.11a6 6 0 000 12zM159.73 41.5h12.442c3.312 0 6-2.688 6-6s-2.688-6-6-6H159.73c-3.312 0-6 2.688-6 6s2.688 6 6 6zm-81.62 0h60.12c3.313 0 6-2.688 6-6s-2.687-6-6-6H78.11c-3.313 0-6 2.688-6 6s2.687 6 6 6zm341.726 313.25c-12.856.117-23.2 10.594-23.156 23.45.047 12.85 10.468 23.257 23.32 23.28h.18c12.851-.168 23.156-10.683 23.062-23.535-.094-12.855-10.55-23.218-23.406-23.195zm.242 34.73h-.074c-6.242-.015-11.305-5.05-11.356-11.289a11.355 11.355 0 013.266-8.058 11.36 11.36 0 018.012-3.383h.082c6.238.035 11.281 5.094 11.3 11.332.02 6.234-4.992 11.324-11.23 11.398zm-61.957-31.652h-.047a6.002 6.002 0 00-5.953 6.047l.117 15.988a6.005 6.005 0 006 5.957h.047a6 6 0 005.957-6.047l-.12-15.988a6 6 0 00-6-5.957zm-88.898.652h-.047a6 6 0 00-5.957 6.043l.12 16a6 6 0 006 5.957h.048a5.997 5.997 0 005.953-6.046l-.117-16a6.004 6.004 0 00-6-5.954zm29.629-.218h-.047a5.996 5.996 0 00-5.953 6.043l.117 16a6.003 6.003 0 006 5.957h.047a6.008 6.008 0 005.957-6.047l-.121-16a5.994 5.994 0 00-6-5.953zm29.64-.222h-.043a6 6 0 00-5.953 6.046l.117 16a6.002 6.002 0 006 5.953h.047a6 6 0 005.957-6.043l-.12-16a6 6 0 00-6.005-5.957zm0 0"/></g></svg>