<svg height="489pt" viewBox="-6 0 489 489.48" width="489pt" xmlns="http://www.w3.org/2000/svg"><path d="m443.570312 472.820312c.035157 4.628907-3.691406 8.40625-8.320312 8.441407l-25.429688.1875c-4.628906.035156-8.410156-3.691407-8.441406-8.320313l-.21875-29.140625-.011718-1.316406 42.191406-.363281.011718 1.363281zm0 0" fill="#f8ec7d"/><path d="m402.648438 378.238281c.074218 9.589844 7.902343 17.300781 17.492187 17.230469 9.585937-.070312 17.300781-7.902344 17.226563-17.488281-.070313-9.589844-7.898438-17.300781-17.488282-17.230469-9.585937.074219-17.296875 7.902344-17.230468 17.488281zm38.8125-63.207031c17.308593-.121094 29.867187 15.308594 30 32.628906l-9.699219 77.761719c.042969 9.238281-7.390625 16.78125-16.632813 16.867187l-1.789062.019532-42.191406.363281-154.1875 1.347656h-.980469v-127.300781h1l79.160156-.6875 69.449219-.609375 45.871094-.402344zm0 0" fill="#6fe3ff"/><path d="m419.878906 360.75c9.59375-.074219 17.425782 7.640625 17.5 17.234375.074219 9.589844-7.644531 17.421875-17.234375 17.496094-9.59375.070312-17.425781-7.648438-17.496093-17.242188-.066407-9.585937 7.644531-17.414062 17.230468-17.488281zm0 0" fill="#f8ec7d"/><path d="m408.328125 254.921875 33.191406 60.097656h-.058593l-45.871094.402344-.011719-1.210937c-.074219-12.417969-6.777344-23.847657-17.574219-29.980469-10.796875-6.132813-24.046875-6.03125-34.75.261719-10.703125 6.292968-17.230468 17.820312-17.125 30.238281l.011719 1.300781-79.160156.6875h-1v-93.808594h1.007812l65.023438-.621094 54.976562-.527343c18.792969-.140625 31.0625 15.039062 41.339844 33.160156zm0 0" fill="#f8ec7d"/><path d="m395.589844 315.421875-69.449219.609375-.011719-1.300781c-.105468-12.417969 6.421875-23.945313 17.125-30.238281 10.703125-6.292969 23.953125-6.394532 34.75-.261719 10.796875 6.132812 17.5 17.5625 17.574219 29.980469zm0 0" fill="#6fe3ff"/><path d="m312.011719 222.289062-65.023438.621094h-1.007812v-27.921875h38.738281c15.074219.003907 27.289062 12.21875 27.292969 27.292969zm0 0" fill="#6fe3ff"/><path d="m226.140625 6c16.625.007812 30.097656 13.484375 30.097656 30.109375v58.070313l-60.207031-.960938v-57.109375c0-16.574219 13.394531-30.03125 29.96875-30.109375zm0 0" fill="#bcf1f7"/><path d="m226 126.871094c11.035156 0 19.980469 8.945312 19.980469 19.980468v316.648438c-.003907 11.035156-8.945313 19.976562-19.980469 19.980469h-199.78125c-11.035156 0-19.980469-8.945313-19.980469-19.980469v-316.648438c-.003906-11.039062 8.945313-19.984374 19.980469-19.980468h29.972656v29.96875h-19.980468v59.929687h179.800781v-59.929687h-19.980469v-29.96875zm-9.988281 314.648437v-39.949219h-39.960938v39.949219zm0-69.917969v-39.960937h-39.960938v39.960937zm0-69.921874v-39.960938h-39.960938v39.960938zm-72.921875 139.839843v-39.949219h-39.960938v39.949219zm0-69.917969v-39.960937h-39.960938v39.960937zm0-69.921874v-39.960938h-39.960938v39.960938zm-66.929688 139.839843v-39.949219h-39.949218v39.949219zm0-69.917969v-39.960937h-39.949218v39.960937zm0-69.921874v-39.960938h-39.949218v39.960938zm0 0" fill="#e48e66"/><path d="m176.050781 401.570312h39.960938v39.949219h-39.960938zm0 0" fill="#6fe3ff"/><path d="m176.050781 331.640625h39.960938v39.960937h-39.960938zm0 0" fill="#6fe3ff"/><path d="m176.050781 261.71875h39.960938v39.960938h-39.960938zm0 0" fill="#6fe3ff"/><path d="m196.03125 156.839844h19.980469v59.929687h-19.980469zm0 0" fill="#6fe3ff"/><path d="m103.128906 401.570312h39.960938v39.949219h-39.960938zm0 0" fill="#6fe3ff"/><path d="m103.128906 331.640625h39.960938v39.960937h-39.960938zm0 0" fill="#6fe3ff"/><path d="m103.128906 261.71875h39.960938v39.960938h-39.960938zm0 0" fill="#6fe3ff"/><path d="m226 6c-16.574219.078125-29.96875 13.535156-29.96875 30.109375v180.660156h-139.839844v-180.800781c-.003906-16.546875 13.410156-29.964844 29.957032-29.96875zm0 0" fill="#6fe3ff"/><path d="m36.210938 401.570312h39.949218v39.949219h-39.949218zm0 0" fill="#6fe3ff"/><path d="m36.210938 331.640625h39.949218v39.960937h-39.949218zm0 0" fill="#6fe3ff"/><path d="m36.210938 261.71875h39.949218v39.960938h-39.949218zm0 0" fill="#6fe3ff"/><path d="m36.210938 156.839844h19.980468v59.929687h-19.980468zm0 0" fill="#6fe3ff"/><g fill="#63316d"><path d="m26.21875 489.480469h199.78125c14.339844-.015625 25.964844-11.640625 25.980469-25.980469v-13.523438l143.214843-1.253906.183594 24.445313c.050782 7.90625 6.480469 14.289062 14.390625 14.28125h.097657l25.425781-.1875c7.945312-.054688 14.339843-6.542969 14.28125-14.488281l-.1875-24.914063c10.566406-2.085937 18.234375-11.285156 18.375-22.058594l9.65625-77.402343c.03125-.261719.046875-.523438.046875-.785157-.152344-20.039062-14.320313-36.480469-32.292969-38.402343l-31.621094-57.25c-9.570312-16.871094-23.472656-36.203126-46.316406-36.203126h-.296875l-49.488281.480469c-2.929688-15.773437-16.683594-27.222656-32.730469-27.242187h-32.738281v-42.144532c-.015625-14.34375-11.640625-25.964843-25.980469-25.980468h-23.96875v-21.554688l54.113281.863282c1.609375.039062 3.167969-.582032 4.304688-1.722657 1.144531-1.128906 1.789062-2.667969 1.789062-4.277343v-58.070313c0-19.9375-16.160156-36.1015625-36.097656-36.109375h-139.992187c-19.851563.0234375-35.9375 16.117188-35.957032 35.96875v84.902344h-23.972656c-14.339844.015625-25.960938 11.636718-25.980469 25.980468v316.648438c.019531 14.339844 11.640625 25.964844 25.980469 25.980469zm410.664062-14.925781c-.441406.449218-1.046874.703124-1.679687.707031l-25.421875.1875h-.015625c-1.3125.003906-2.378906-1.054688-2.386719-2.363281l-.183594-24.46875 30.191407-.257813.183593 24.5c.003907.636719-.242187 1.246094-.6875 1.695313zm28.570313-127.226563-9.648437 77.351563c-.03125.257812-.046876.523437-.042969.785156.019531 5.9375-4.765625 10.777344-10.703125 10.824218l-43.964844.382813-149.113281 1.304687v-115.300781l189.523437-1.65625v.007813h.144532c12.921874.003906 23.515624 11.730468 23.804687 26.300781zm-132.96875-37.355469c2.199219-13.875 14.109375-24.128906 28.160156-24.234375h.210938c13.933593.023438 25.847656 10.023438 28.285156 23.738281zm34.550781-82.210937h.214844c13.15625 0 23.894531 9.023437 35.828125 30.058593l28.324219 51.289063-30.148438.261719c-2.589844-20.34375-19.886718-35.601563-40.394531-35.632813h-.300781c-20.679688.15625-37.957032 15.78125-40.183594 36.339844l-68.390625.601563v-81.816407zm-82.316406-26.773438c9.464844.019531 17.785156 6.273438 20.429688 15.363281l-53.171876.511719v-15.875zm-82.6875-38.148437h7.980469v47.929687h-7.980469zm24.109375-150.839844c13.308594.007812 24.097656 10.800781 24.097656 24.109375v51.976563l-48.207031-.769532v-51.207031c.023438-13.25 10.71875-24.003906 23.96875-24.109375zm-163.949219 23.96875c.011719-13.226562 10.730469-23.949219 23.957032-23.96875h113.15625c-5.972657 6.609375-9.277344 15.203125-9.273438 24.109375v174.660156h-127.839844zm-19.980468 174.800781v-47.929687h7.980468v47.929687zm-29.972657-63.917969c.011719-7.71875 6.265625-13.96875 13.980469-13.980468h23.972656v17.96875h-13.980468c-3.316407 0-6 2.6875-6 6v59.929687c0 3.3125 2.683593 6 6 6h179.800781c3.3125 0 6-2.6875 6-6v-59.929687c0-3.3125-2.6875-6-6-6h-13.980469v-17.96875h23.96875c7.714844.011718 13.96875 6.261718 13.980469 13.980468v316.648438c-.011719 7.714844-6.265625 13.96875-13.980469 13.980469h-199.78125c-7.714844-.011719-13.96875-6.265625-13.980469-13.980469zm0 0"/><path d="m36.210938 307.679688h39.949218c3.3125 0 6-2.6875 6-6v-39.960938c0-3.3125-2.6875-6-6-6h-39.949218c-3.316407 0-6 2.6875-6 6v39.960938c0 3.3125 2.683593 6 6 6zm6-39.960938h27.949218v27.960938h-27.949218zm0 0"/><path d="m103.128906 307.679688h39.960938c3.3125 0 6-2.6875 6-6v-39.960938c0-3.3125-2.6875-6-6-6h-39.960938c-3.3125 0-6 2.6875-6 6v39.960938c0 3.3125 2.6875 6 6 6zm6-39.960938h27.960938v27.960938h-27.960938zm0 0"/><path d="m176.050781 307.679688h39.960938c3.3125 0 6-2.6875 6-6v-39.960938c0-3.3125-2.6875-6-6-6h-39.960938c-3.316406 0-6 2.6875-6 6v39.960938c0 3.3125 2.683594 6 6 6zm6-39.960938h27.960938v27.960938h-27.960938zm0 0"/><path d="m36.210938 377.601562h39.949218c3.3125 0 6-2.6875 6-6v-39.960937c0-3.3125-2.6875-6-6-6h-39.949218c-3.316407 0-6 2.6875-6 6v39.960937c0 3.3125 2.683593 6 6 6zm6-39.960937h27.949218v27.960937h-27.949218zm0 0"/><path d="m103.128906 377.601562h39.960938c3.3125 0 6-2.6875 6-6v-39.960937c0-3.3125-2.6875-6-6-6h-39.960938c-3.3125 0-6 2.6875-6 6v39.960937c0 3.3125 2.6875 6 6 6zm6-39.960937h27.960938v27.960937h-27.960938zm0 0"/><path d="m176.050781 377.601562h39.960938c3.3125 0 6-2.6875 6-6v-39.960937c0-3.3125-2.6875-6-6-6h-39.960938c-3.316406 0-6 2.6875-6 6v39.960937c0 3.3125 2.683594 6 6 6zm6-39.960937h27.960938v27.960937h-27.960938zm0 0"/><path d="m36.210938 447.519531h39.949218c3.3125 0 6-2.6875 6-6v-39.949219c0-3.3125-2.6875-6-6-6h-39.949218c-3.316407 0-6 2.6875-6 6v39.949219c0 3.3125 2.683593 6 6 6zm6-39.949219h27.949218v27.949219h-27.949218zm0 0"/><path d="m103.128906 447.519531h39.960938c3.3125 0 6-2.6875 6-6v-39.949219c0-3.3125-2.6875-6-6-6h-39.960938c-3.3125 0-6 2.6875-6 6v39.949219c0 3.3125 2.6875 6 6 6zm6-39.949219h27.960938v27.949219h-27.960938zm0 0"/><path d="m176.050781 447.519531h39.960938c3.3125 0 6-2.6875 6-6v-39.949219c0-3.3125-2.6875-6-6-6h-39.960938c-3.316406 0-6 2.6875-6 6v39.949219c0 3.3125 2.683594 6 6 6zm6-39.949219h27.960938v27.949219h-27.960938zm0 0"/><path d="m93.0625 180.128906h-.105469c-4.890625-.03125-8.839843-4-8.847656-8.890625 0-3.3125-2.6875-6-6-6s-6 2.6875-6 6c.015625 9.222657 6.070313 17.347657 14.902344 20v3.75c0 3.3125 2.683593 6 6 6 3.3125 0 6-2.6875 6-6v-3.75c9.925781-2.976562 16.167969-12.78125 14.664062-23.035156-1.503906-10.253906-10.300781-17.855469-20.664062-17.855469-4.917969.007813-8.90625-3.976562-8.910157-8.894531-.003906-4.914063 3.976563-8.902344 8.894532-8.90625 4.917968 0 8.902344 3.984375 8.902344 8.902344 0 3.3125 2.6875 6 6 6 3.316406 0 6-2.6875 6-6-.011719-9.21875-6.058594-17.34375-14.886719-20v-3.070313c0-3.3125-2.6875-6-6-6-3.316407 0-6 2.6875-6 6v3.066406c-9.929688 2.980469-16.175781 12.789063-14.671875 23.042969 1.503906 10.257813 10.304687 17.859375 20.671875 17.859375 4.871093.035156 8.808593 3.988282 8.824219 8.863282.011718 4.871093-3.898438 8.847656-8.773438 8.914062zm0 0"/><path d="m159.730469 71.46875h12.441406c3.3125 0 6-2.683594 6-6 0-3.3125-2.6875-6-6-6h-12.441406c-3.3125 0-6 2.6875-6 6 0 3.316406 2.6875 6 6 6zm0 0"/><path d="m78.109375 71.46875h60.121094c3.3125 0 6-2.683594 6-6 0-3.3125-2.6875-6-6-6h-60.121094c-3.3125 0-6 2.6875-6 6 0 3.316406 2.6875 6 6 6zm0 0"/><path d="m149.738281 190.808594h22.433594c3.3125 0 6-2.683594 6-6 0-3.3125-2.6875-6-6-6h-22.433594c-3.3125 0-6 2.6875-6 6 0 3.316406 2.6875 6 6 6zm0 0"/><path d="m133.101562 178.808594h-3.339843c-3.316407 0-6 2.6875-6 6 0 3.316406 2.683593 6 6 6h3.339843c3.3125 0 6-2.683594 6-6 0-3.3125-2.6875-6-6-6zm0 0"/><path d="m78.109375 101.441406h60.121094c3.3125 0 6-2.6875 6-6 0-3.316406-2.6875-6-6-6h-60.121094c-3.3125 0-6 2.683594-6 6 0 3.3125 2.6875 6 6 6zm0 0"/><path d="m159.730469 41.5h12.441406c3.3125 0 6-2.6875 6-6s-2.6875-6-6-6h-12.441406c-3.3125 0-6 2.6875-6 6s2.6875 6 6 6zm0 0"/><path d="m78.109375 41.5h60.121094c3.3125 0 6-2.6875 6-6s-2.6875-6-6-6h-60.121094c-3.3125 0-6 2.6875-6 6s2.6875 6 6 6zm0 0"/><path d="m419.835938 354.75c-12.855469.117188-23.199219 10.59375-23.15625 23.449219.046874 12.851562 10.46875 23.257812 23.320312 23.28125h.179688c12.851562-.167969 23.15625-10.683594 23.0625-23.535157-.09375-12.855468-10.550782-23.21875-23.40625-23.195312zm.242187 34.730469h-.074219c-6.242187-.015625-11.304687-5.050781-11.355468-11.289063-.023438-3.015625 1.152343-5.914062 3.265624-8.058594 2.117188-2.144531 4.996094-3.363281 8.011719-3.382812h.082031c6.238282.035156 11.28125 5.09375 11.300782 11.332031.019531 6.234375-4.992188 11.324219-11.230469 11.398438zm0 0"/><path d="m358.121094 357.828125h-.046875c-3.3125.027344-5.980469 2.734375-5.953125 6.046875l.117187 15.988281c.027344 3.296875 2.707031 5.957031 6 5.957031h.046875c3.316406-.023437 5.980469-2.730468 5.957032-6.046874l-.121094-15.988282c-.023438-3.296875-2.703125-5.957031-6-5.957031zm0 0"/><path d="m269.222656 358.480469h-.046875c-3.316406.023437-5.980469 2.730469-5.957031 6.042969l.121094 16c.023437 3.296874 2.703125 5.957031 6 5.957031h.046875c3.3125-.023438 5.980469-2.730469 5.953125-6.046875l-.117188-16c-.027344-3.292969-2.707031-5.953125-6-5.953125zm0 0"/><path d="m298.851562 358.261719h-.046874c-3.3125.023437-5.980469 2.730469-5.953126 6.042969l.117188 16c.027344 3.296874 2.703125 5.957031 6 5.957031h.046875c3.3125-.027344 5.980469-2.734375 5.957031-6.046875l-.121094-16c-.023437-3.296875-2.703124-5.957032-6-5.953125zm0 0"/><path d="m328.492188 358.039062h-.042969c-3.3125.027344-5.980469 2.730469-5.953125 6.046876l.117187 16c.027344 3.296874 2.707031 5.953124 6 5.953124h.046875c3.316406-.023437 5.980469-2.730468 5.957032-6.042968l-.121094-16c-.023438-3.300782-2.707032-5.957032-6.003906-5.957032zm0 0"/></g></svg>