<svg height="652" viewBox="0 -30 489.759 489" width="652" xmlns="http://www.w3.org/2000/svg"><path d="M365.2 332.879l-63.86.469-25.352.191-1.34.012c-5.55.02-10.078-4.442-10.136-9.992l-6.25-46.649c-.082-10.39 7.09-19.851 17.476-19.95l-.039.08 120.742-.892 41.73-.308 27.567-.2v.008c10.403-.078 17.953 9.2 18.024 19.602l-5.82 46.73c.019 5.555-4.446 10.086-10 10.141l-1.083.008-25.347.191zm87.722-28.89c5.762-.04 10.398-4.747 10.36-10.509-.044-5.761-4.75-10.402-10.512-10.359-5.762.04-10.403 4.746-10.36 10.508.043 5.762 4.746 10.398 10.512 10.36zM289.52 305.19c5.761-.046 10.394-4.75 10.351-10.511-.047-5.762-4.75-10.395-10.512-10.348-5.757.043-10.394 4.746-10.347 10.508.039 5.762 4.746 10.394 10.508 10.351zm0 0" fill="#f8ec7d"/><path d="M467 350.469a5.035 5.035 0 01-5 5.07l-15.281.11a5.03 5.03 0 01-5.07-4.989l-.13-17.52-.007-.82 25.347-.191.012.82zM275.738 256.96l20.192-36.39c5.199-10.922 13.539-20.16 24.84-20.242l44.6-.328 55.61-.41c11.289-.082 18.667 9.039 24.847 19.93l19.942 36.12h-.032l-27.566.2-.012-.68a20.867 20.867 0 10-41.73.3l.011.688-120.742.891zm187.543 36.52c.04 5.762-4.597 10.47-10.36 10.508-5.765.043-10.468-4.597-10.51-10.36-.044-5.76 4.597-10.468 10.359-10.507 5.761-.039 10.468 4.598 10.511 10.36zm0 0" fill="#e2d574"/><path d="M440.45 43.918v79.59h-75.08v-79.59c0-19.898 15.531-36.344 35.399-37.477a35.34 35.34 0 012.14-.062c20.73.008 37.531 16.812 37.54 37.539zm0 0" fill="#bcf1f7"/><path d="M438.16 255.16l.012.68-41.73.308-.012-.687a20.867 20.867 0 1141.73-.3zm0 0" fill="#f8ec7d"/><path d="M400.77 6.379v.062c-19.868 1.133-35.4 17.579-35.4 37.477V200l-44.601.328c-11.301.082-19.641 9.32-24.84 20.242l-20.192 36.39c-10.386.099-17.558 9.56-17.476 19.95l6.25 46.649c.058 5.55 4.586 10.011 10.136 9.992l1.34-.012.012.82.129 17.52a5.033 5.033 0 005.07 4.992l15.281-.113a5.034 5.034 0 005-5.067l-.128-17.523-.012-.82 63.86-.47v33.22c-2.348 31.812-28.34 56.882-60.06 56.882h-.038a54.96 54.96 0 01-3.692-.12c-31.539-1.942-56.539-28.72-56.539-61.45v-39.87H66.421l2.227-272.692c.243-23.52 19.38-42.465 42.903-42.47zm0 0" fill="#6fe3ff"/><path d="M301.48 351.691a5.034 5.034 0 01-5 5.067l-15.28.113a5.033 5.033 0 01-5.071-4.992l-.129-17.52-.012-.82 25.352-.191.012.82zm0 0" fill="#e2d574"/><path d="M301.41 422.86l-.012.12H66.23C32.97 422.98 6 395.41 6 361.41v-39.87h238.871v39.87c0 32.73 25 59.508 56.54 61.45zm0 0" fill="#bcf1f7"/><path d="M299.879 294.68c.047 5.765-4.586 10.472-10.352 10.52-5.765.042-10.472-4.595-10.515-10.356-.043-5.766 4.593-10.473 10.36-10.516 5.76-.047 10.468 4.59 10.507 10.352zm0 0" fill="#e2d574"/><g fill="#63316d"><path d="M113.11 112.691h50.14a6 6 0 000-12h-50.14a6 6 0 000 12zm205.46 64.637c0-3.312-2.687-6-6-6h-74.64c-3.313 0-6 2.688-6 6 0 3.317 2.687 6 6 6h74.64c3.313 0 6-2.683 6-6zm-129.39-6c-3.313 0-6 2.688-6 6 0 3.317 2.687 6 6 6h23.37c3.313 0 6-2.683 6-6 0-3.312-2.687-6-6-6zm-76.07 12h50.28c3.313 0 6-2.683 6-6 0-3.312-2.687-6-6-6h-50.28c-3.313 0-6 2.688-6 6 0 3.317 2.687 6 6 6zm105.261 58.652H113.11a6 6 0 100 12h105.262a6 6 0 000-12zm79.801-129.289h14.398a6 6 0 000-12h-14.398c-3.317 0-6 2.684-6 6 0 3.313 2.683 6 6 6zm-109.981 0h84.688c3.316 0 6-2.687 6-6 0-3.316-2.684-6-6-6H188.19c-3.316 0-6 2.684-6 6 0 3.313 2.684 6 6 6zm101.137 165.637c-9.074.027-16.41 7.402-16.387 16.477.024 9.074 7.403 16.41 16.473 16.386h.149c9.074-.066 16.378-7.476 16.312-16.55-.066-9.07-7.473-16.375-16.547-16.313zm3.277 19.543a4.434 4.434 0 11-3.184-7.543h.044a4.434 4.434 0 013.14 7.543zm160.239-20.75h-.117c-9.075.031-16.407 7.414-16.375 16.492s7.418 16.41 16.496 16.375h.113c9.078-.066 16.379-7.476 16.32-16.55v-.012c-.09-9.02-7.418-16.29-16.437-16.305zm3.16 19.547a4.4 4.4 0 01-3.125 1.32h-.031a4.43 4.43 0 01-4.45-4.418 4.427 4.427 0 014.414-4.449h.032a4.432 4.432 0 013.16 7.547zm0 0"/><path d="M469.473 249.93l-18.426-33.371c-6.074-10.7-14.957-22.97-29.918-22.97h-.191l-49.567.364v-64.445h69.078c3.317 0 6-2.684 6-6v-79.59C446.441 19.878 426.953.391 402.91.378c-.488 0-.972.028-1.46.044a5.67 5.67 0 00-.68-.043H111.55C84.767.469 63.005 22.019 62.649 48.8l-2.18 266.738H6c-3.312 0-6 2.688-6 6v39.871c0 35.852 27.516 65.258 62.133 67.426.422.094.855.144 1.289.144h237.976c.297-.003.59-.027.88-.07.94.04 1.894.07 2.863.07 34.445 0 63.457-27.425 66.043-62.437.011-.148.015-.3.015-.445v-27.262l64.36-.473.09 12.34c.046 6.059 4.972 10.95 11.03 10.945h.087l15.28-.109c6.09-.05 10.99-5.023 10.954-11.113l-.098-13.121a16.106 16.106 0 0011.036-14.93l5.777-46.383a5.82 5.82 0 00.043-.781 26.845 26.845 0 00-6.645-17.668 22.941 22.941 0 00-13.64-7.613zm-48.45-44.34h.098c6.941 0 12.774 5.062 19.453 16.828l15.07 27.297-12.046.086c-2.61-12.438-13.575-21.352-26.286-21.36h-.214c-12.793.094-23.746 9.192-26.188 21.75l-104.984.774 15.254-27.485c.058-.109.117-.222.172-.332 2.976-6.25 9.46-16.75 19.464-16.82l44.602-.328zm10.114 44.3l-27.762.2a14.853 14.853 0 0113.813-9.664 14.852 14.852 0 0113.949 9.465zm3.312-205.972v73.59h-63.078v-73.59c0-16.719 13.043-30.531 29.738-31.488.598-.032 1.2-.051 1.797-.051 17.418.008 31.531 14.125 31.543 31.539zM12 361.41v-33.87h226.871v33.87a68.002 68.002 0 0028.586 55.57H66.23c-29.902 0-54.23-24.93-54.23-55.57zm347.2 4.461c-2.227 28.676-25.934 51.11-54.098 51.11-1.106 0-2.215-.04-3.325-.11-28.547-1.754-50.906-26.117-50.906-55.46v-39.872c0-3.312-2.687-6-6-6H72.47L74.65 48.91c.269-20.207 16.69-36.465 36.902-36.531h261.351a43.467 43.467 0 00-13.53 31.539v150.125l-38.645.285c-12.211.09-22.91 8.426-30.133 23.492l-18.57 33.47c-11.434 1.976-19.864 12.577-19.762 25.667 0 .25.02.5.05.75l6.2 46.316a16.127 16.127 0 0011.515 14.868l.102 13.03c.055 6.06 4.976 10.946 11.035 10.95h.078l15.281-.113c6.09-.051 10.993-5.02 10.957-11.113l-.093-12.336 51.812-.383zm-63.81-26.473l.083 11.368-13.352.101-.082-11.367zm152.255 10.243l-.086-11.368 13.351-.101.082 11.375zm24.34-28.399a5.878 5.878 0 00-.044.785 4.098 4.098 0 01-4.054 4.098l-102.352.758c-.11-.004-.223-.016-.336-.016-.148 0-.3.012-.445.024l-90.149.664a3.832 3.832 0 01-2.875-1.18 4.027 4.027 0 01-1.218-2.852 6.917 6.917 0 00-.055-.753l-6.2-46.247c.09-6.468 4.122-13.05 10.88-13.511.183.015.37.035.558.035h.043l189.832-1.399c.055 0 .11.008.164.008h.145c3.183.012 6.2 1.418 8.258 3.848a15.04 15.04 0 013.62 9.433zm0 0"/><path d="M344.422 279.488h-.043a6 6 0 00-5.953 6.047l.066 9.617a6.005 6.005 0 006 5.957h.047a6.002 6.002 0 005.957-6.043l-.07-9.62a6.003 6.003 0 00-6.004-5.958zm-17.812.133h-.044a6.002 6.002 0 00-5.957 6.043l.07 9.621a6 6 0 006 5.953h.048a5.996 5.996 0 005.953-6.043l-.07-9.62a5.997 5.997 0 00-6-5.954zm88.995-.652a6.002 6.002 0 00-5.957 6.043l.07 9.613a6 6 0 006 5.953h.048a6.002 6.002 0 005.957-6.043l-.07-9.61a6.038 6.038 0 00-6.048-5.956zm-53.375.391h-.042a6 6 0 00-5.958 6.042l.07 9.621a6 6 0 006 5.957h.044a6.002 6.002 0 005.957-6.042l-.07-9.622a6 6 0 00-6-5.957zm17.81-.13h-.044a6.002 6.002 0 00-5.957 6.043l.07 9.622a5.994 5.994 0 006 5.953h.047a5.993 5.993 0 005.953-6.043l-.07-9.617a6 6 0 00-6-5.958zm17.8-.132h-.05a6.004 6.004 0 00-5.95 6.05l.082 9.61a6 6 0 006 5.953h.05a6.002 6.002 0 005.95-6.05l-.082-9.61a6 6 0 00-6-5.953zm0 0"/></g></svg>