<svg height="489pt" viewBox="0 -30 489.75912 489" width="489pt" xmlns="http://www.w3.org/2000/svg"><path d="m365.199219 332.878906-63.859375.46875-25.351563.191406-1.339843.011719c-5.550782.019531-10.078126-4.441406-10.136719-9.992187l-6.25-46.648438c-.082031-10.390625 7.089843-19.851562 17.476562-19.949218l-.039062.078124 120.742187-.890624 41.730469-.308594 27.566406-.199219v.007813c10.402344-.078126 17.953125 9.199218 18.023438 19.601562l-5.820313 46.730469c.019532 5.554687-4.445312 10.085937-10 10.140625l-1.082031.007812-25.347656.191406zm87.722656-28.890625c5.761719-.039062 10.398437-4.746093 10.359375-10.507812-.042969-5.761719-4.75-10.402344-10.511719-10.359375-5.761719.039062-10.402343 4.746094-10.359375 10.507812.042969 5.761719 4.746094 10.398438 10.511719 10.359375zm-163.402344 1.203125c5.761719-.046875 10.394531-4.75 10.351563-10.511718-.046875-5.761719-4.75-10.394532-10.511719-10.347657-5.757813.042969-10.394531 4.746094-10.347656 10.507813.039062 5.761718 4.746093 10.394531 10.507812 10.351562zm0 0" fill="#f8ec7d"/><path d="m467 350.46875c.019531 2.78125-2.21875 5.050781-5 5.070312l-15.28125.109376c-2.777344.023437-5.046875-2.210938-5.070312-4.988282l-.128907-17.519531-.007812-.820313 25.347656-.191406.011719.820313zm0 0" fill="#e2d574"/><path d="m275.738281 256.960938 20.191407-36.390626c5.199218-10.921874 13.539062-20.160156 24.839843-20.242187l44.601563-.328125 55.609375-.410156c11.289062-.082032 18.667969 9.039062 24.847656 19.929687l19.941406 36.121094h-.03125l-27.566406.199219-.011719-.679688c-.003906-7.488281-4.019531-14.398437-10.523437-18.113281-6.503907-3.710937-14.496094-3.652344-20.945313.152344-6.449218 3.804687-10.363281 10.773437-10.261718 18.261719l.011718.6875-120.742187.890624zm0 0" fill="#e2d574"/><path d="m463.28125 293.480469c.039062 5.761719-4.597656 10.46875-10.359375 10.507812-5.765625.042969-10.46875-4.597656-10.511719-10.359375-.042968-5.761718 4.597656-10.46875 10.359375-10.507812 5.761719-.039063 10.46875 4.597656 10.511719 10.359375zm0 0" fill="#e2d574"/><path d="m440.449219 43.917969v79.589843h-75.078125v-79.589843c0-19.898438 15.53125-36.34375 35.398437-37.476563.710938-.042968 1.421875-.0625 2.140625-.0625 20.730469.007813 37.53125 16.8125 37.539063 37.539063zm0 0" fill="#bcf1f7"/><path d="m438.160156 255.160156.011719.679688-41.730469.308594-.011718-.6875c-.101563-7.488282 3.8125-14.457032 10.261718-18.261719 6.449219-3.804688 14.441406-3.863281 20.945313-.152344 6.503906 3.714844 10.519531 10.625 10.523437 18.113281zm0 0" fill="#f8ec7d"/><path d="m400.769531 6.378906v.0625c-19.867187 1.132813-35.398437 17.578125-35.398437 37.476563v156.082031l-44.601563.328125c-11.300781.082031-19.640625 9.320313-24.839843 20.242187l-20.191407 36.390626c-10.386719.097656-17.558593 9.558593-17.476562 19.949218l6.25 46.648438c.058593 5.550781 4.585937 10.011718 10.136719 9.992187l1.339843-.011719.011719.820313.128906 17.519531c.023438 2.777344 2.292969 5.015625 5.070313 4.992188l15.28125-.113282c2.78125-.019531 5.019531-2.289062 5-5.066406l-.128907-17.523437-.011718-.820313 63.859375-.46875v33.21875c-2.347657 31.8125-28.339844 56.882813-60.058594 56.882813h-.039063c-1.242187 0-2.472656-.039063-3.691406-.121094-31.539062-1.941406-56.539062-28.71875-56.539062-61.449219v-39.871094h-178.449219l2.226563-272.691406c.242187-23.519531 19.378906-42.464844 42.902343-42.46875zm0 0" fill="#6fe3ff"/><path d="m301.480469 351.691406c.019531 2.777344-2.21875 5.046875-5 5.066406l-15.28125.113282c-2.777344.023437-5.046875-2.214844-5.070313-4.992188l-.128906-17.519531-.011719-.820313 25.351563-.191406.011718.820313zm0 0" fill="#e2d574"/><path d="m301.410156 422.859375-.011718.121094h-235.167969c-33.261719 0-60.230469-27.570313-60.230469-61.570313v-39.871094h238.871094v39.871094c0 32.730469 25 59.507813 56.539062 61.449219zm0 0" fill="#bcf1f7"/><path d="m299.878906 294.679688c.046875 5.765624-4.585937 10.472656-10.351562 10.519531-5.765625.042969-10.472656-4.59375-10.515625-10.355469-.042969-5.765625 4.59375-10.472656 10.359375-10.515625 5.761718-.046875 10.46875 4.589844 10.507812 10.351563zm0 0" fill="#e2d574"/><g fill="#63316d"><path d="m113.109375 112.691406h50.140625c3.3125 0 6-2.6875 6-6 0-3.316406-2.6875-6-6-6h-50.140625c-3.3125 0-6 2.683594-6 6 0 3.3125 2.6875 6 6 6zm0 0"/><path d="m318.570312 177.328125c0-3.3125-2.6875-6-6-6h-74.640624c-3.3125 0-6 2.6875-6 6 0 3.316406 2.6875 6 6 6h74.640624c3.3125 0 6-2.683594 6-6zm0 0"/><path d="m189.179688 171.328125c-3.3125 0-6 2.6875-6 6 0 3.316406 2.6875 6 6 6h23.371093c3.3125 0 6-2.683594 6-6 0-3.3125-2.6875-6-6-6zm0 0"/><path d="m113.109375 183.328125h50.28125c3.3125 0 6-2.683594 6-6 0-3.3125-2.6875-6-6-6h-50.28125c-3.3125 0-6 2.6875-6 6 0 3.316406 2.6875 6 6 6zm0 0"/><path d="m218.371094 241.980469h-105.261719c-3.3125 0-6 2.683593-6 6 0 3.3125 2.6875 6 6 6h105.261719c3.3125 0 6-2.6875 6-6 0-3.316407-2.6875-6-6-6zm0 0"/><path d="m298.171875 112.691406h14.398437c3.3125 0 6-2.6875 6-6 0-3.316406-2.6875-6-6-6h-14.398437c-3.316406 0-6 2.683594-6 6 0 3.3125 2.683594 6 6 6zm0 0"/><path d="m188.191406 112.691406h84.6875c3.316406 0 6-2.6875 6-6 0-3.316406-2.683594-6-6-6h-84.6875c-3.316406 0-6 2.683594-6 6 0 3.3125 2.683594 6 6 6zm0 0"/><path d="m289.328125 278.328125c-9.074219.027344-16.410156 7.402344-16.386719 16.476563.023438 9.074218 7.402344 16.410156 16.472656 16.386718h.148438c9.074219-.066406 16.378906-7.476562 16.3125-16.550781-.066406-9.070313-7.472656-16.375-16.546875-16.3125zm3.277344 19.542969c-1.410157 1.429687-3.605469 1.738281-5.351563.746094-1.746094-.992188-2.605468-3.035157-2.097656-4.976563s2.257812-3.300781 4.265625-3.3125h.042969c1.78125.007813 3.386718 1.082031 4.074218 2.726563.6875 1.648437.316407 3.546874-.933593 4.816406zm0 0"/><path d="m452.84375 277.121094h-.117188c-9.074218.03125-16.40625 7.414062-16.375 16.492187s7.417969 16.410157 16.496094 16.375h.113282c9.078124-.066406 16.378906-7.476562 16.320312-16.550781v-.011719c-.089844-9.019531-7.417969-16.289062-16.4375-16.304687zm3.160156 19.546875c-.824218.839843-1.949218 1.316406-3.125 1.320312h-.03125c-2.449218.011719-4.441406-1.96875-4.449218-4.417969-.011719-2.449218 1.964843-4.441406 4.414062-4.449218h.03125c1.789062-.003906 3.402344 1.070312 4.09375 2.71875.691406 1.652344.324219 3.554687-.933594 4.828125zm0 0"/><path d="m469.472656 249.929688-18.425781-33.371094c-6.074219-10.699219-14.957031-22.96875-29.917969-22.96875h-.191406l-49.566406.363281v-64.445313h69.078125c3.316406 0 6-2.683593 6-6v-79.589843c-.007813-24.039063-19.496094-43.527344-43.539063-43.539063-.488281 0-.972656.027344-1.460937.042969-.226563-.027344-.453125-.042969-.679688-.042969h-289.21875c-26.785156.089844-48.546875 21.640625-48.902343 48.421875l-2.179688 266.738281h-54.46875c-3.3125 0-6 2.6875-6 6v39.871094c0 35.851563 27.515625 65.257813 62.132812 67.425782.421876.09375.855469.144531 1.289063.144531h237.976563c.296874-.003907.589843-.027344.878906-.070313.941406.039063 1.894531.070313 2.863281.070313 34.445313 0 63.457031-27.425781 66.042969-62.4375.011718-.148438.015625-.300781.015625-.445313v-27.261718l64.359375-.472657.089844 12.339844c.046874 6.058594 4.972656 10.949219 11.03125 10.945313h.085937l15.28125-.109376c6.089844-.050781 10.988281-5.023437 10.953125-11.113281l-.097656-13.121093c6.464844-2.140626 10.882812-8.121094 11.035156-14.929688l5.777344-46.382812c.03125-.261719.046875-.519532.042968-.78125-.003906-6.5-2.363281-12.777344-6.644531-17.667969-3.515625-4.054688-8.34375-6.75-13.640625-7.613281zm-48.449218-44.339844h.097656c6.941406 0 12.773437 5.0625 19.453125 16.828125l15.070312 27.296875-12.046875.085937c-2.609375-12.4375-13.574218-21.351562-26.285156-21.359375h-.214844c-12.792968.09375-23.746094 9.191406-26.1875 21.75l-104.984375.773438 15.253907-27.484375c.058593-.109375.117187-.222657.171874-.332031 2.976563-6.25 9.460938-16.75 19.464844-16.820313l44.601563-.328125zm10.113281 44.300781-27.761719.199219c2.152344-5.773438 7.648438-9.621094 13.8125-9.664063 6.160156-.046875 11.710938 3.71875 13.949219 9.464844zm3.3125-205.972656v73.589843h-63.078125v-73.589843c0-16.71875 13.042968-30.53125 29.738281-31.488281.597656-.03125 1.199219-.050782 1.796875-.050782 17.417969.007813 31.53125 14.125 31.542969 31.539063zm-422.449219 317.492187v-33.871094h226.871094v33.871094c-.050782 22.0625 10.605468 42.78125 28.585937 55.570313h-201.226562c-29.902344 0-54.230469-24.929688-54.230469-55.570313zm347.199219 4.460938c-2.226563 28.675781-25.933594 51.109375-54.097657 51.109375-1.105468 0-2.214843-.039063-3.324218-.109375-28.546875-1.753906-50.90625-26.117188-50.90625-55.460938v-39.871094c0-3.3125-2.6875-6-6-6h-172.402344l2.179688-266.628906c.269531-20.207031 16.691406-36.464844 36.902343-36.53125h261.351563c-8.644532 8.210938-13.539063 19.617188-13.53125 31.539063v150.125l-38.644532.285156c-12.210937.089844-22.910156 8.425781-30.132812 23.492187l-18.570312 33.46875c-11.433594 1.976563-19.863282 12.578126-19.761719 25.667969 0 .25.019531.5.050781.75l6.199219 46.316407c.253906 6.914062 4.886719 12.894531 11.515625 14.867187l.101562 13.03125c.054688 6.058594 4.976563 10.945313 11.035156 10.949219h.078126l15.28125-.113282c6.089843-.050781 10.992187-5.019531 10.957031-11.113281l-.09375-12.335937 51.8125-.382813zm-63.808594-26.472656.082031 11.367187-13.351562.101563-.082032-11.367188zm152.253906 10.242187-.085937-11.367187 13.351562-.101563.082032 11.375zm24.339844-28.398437c-.03125.261718-.046875.523437-.042969.785156 0 2.246094-1.808594 4.074218-4.054687 4.097656l-102.351563.757812c-.109375-.003906-.222656-.015624-.335937-.015624-.148438 0-.300781.011718-.445313.023437l-90.148437.664063c-1.082031.03125-2.125-.398438-2.875-1.179688-.769531-.75-1.210938-1.777344-1.21875-2.851562-.003907-.253907-.023438-.503907-.054688-.753907l-6.199219-46.246093c.089844-6.46875 4.121094-13.050782 10.878907-13.511719.183593.015625.371093.035156.558593.035156h.042969l189.832031-1.398437c.054688 0 .109376.007812.164063.007812h.144531c3.183594.011719 6.199219 1.417969 8.257813 3.847656 2.257812 2.632813 3.539062 5.964844 3.621093 9.433594zm0 0"/><path d="m344.421875 279.488281h-.042969c-3.3125.027344-5.980468 2.730469-5.953125 6.046875l.066407 9.617188c.027343 3.296875 2.707031 5.957031 6 5.957031h.046874c3.3125-.023437 5.980469-2.730469 5.957032-6.042969l-.070313-9.621094c-.023437-3.296874-2.707031-5.957031-6.003906-5.957031zm0 0"/><path d="m326.609375 279.621094h-.042969c-3.3125.023437-5.980468 2.730468-5.957031 6.042968l.070313 9.621094c.023437 3.292969 2.703124 5.953125 6 5.953125h.046874c3.3125-.023437 5.980469-2.730469 5.953126-6.042969l-.070313-9.621093c-.023437-3.296875-2.703125-5.953125-6-5.953125zm0 0"/><path d="m415.605469 278.96875c-3.3125.023438-5.980469 2.730469-5.957031 6.042969l.070312 9.613281c.027344 3.296875 2.703125 5.953125 6 5.953125h.046875c3.3125-.023437 5.980469-2.730469 5.957031-6.042969l-.070312-9.609375c-.042969-3.304687-2.738282-5.960937-6.046875-5.957031zm0 0"/><path d="m362.230469 279.359375h-.042969c-3.316406.023437-5.980469 2.730469-5.957031 6.042969l.070312 9.621094c.023438 3.296874 2.703125 5.957031 6 5.957031h.042969c3.3125-.023438 5.980469-2.730469 5.957031-6.042969l-.070312-9.621094c-.023438-3.296875-2.703125-5.957031-6-5.957031zm0 0"/><path d="m380.039062 279.230469h-.042968c-3.3125.023437-5.980469 2.730469-5.957032 6.042969l.070313 9.621093c.023437 3.296875 2.703125 5.957031 6 5.953125h.046875c3.3125-.023437 5.980469-2.726562 5.953125-6.042968l-.070313-9.617188c-.023437-3.296875-2.703124-5.957031-6-5.957031zm0 0"/><path d="m397.839844 279.097656h-.050782c-3.3125.03125-5.976562 2.738282-5.949218 6.050782l.082031 9.609374c.027344 3.296876 2.703125 5.953126 6 5.953126h.050781c3.3125-.027344 5.976563-2.738282 5.949219-6.050782l-.082031-9.609375c-.027344-3.296875-2.703125-5.953125-6-5.953125zm0 0"/></g></svg>