<svg xmlns="http://www.w3.org/2000/svg" id="Layer_1" data-name="Layer 1" width="512" height="512"><path d="M462.83 299.92v35.32a40 40 0 01-40 40H89.17a40 40 0 01-40-40v-35.32z" fill="#f8ec7d"/><path d="M462.83 91v208.92H49.17V91a40 40 0 0140-40h333.66a40 40 0 0140 40zm-28.72 142.34v-36.11a10 10 0 00-10-10H417l-12.57-41.59a20 20 0 00-19.14-14.22H272.93a20.008 20.008 0 00-19.15 14.22l-12.57 41.59h-7.1a10 10 0 00-10 10v36.11a10 10 0 0010 10h14.64v20.64a5.473 5.473 0 005.47 5.48h16.38a5.473 5.473 0 005.47-5.48v-20.64h106.07v20.64a5.476 5.476 0 005.48 5.48h16.37a5.476 5.476 0 005.48-5.48v-20.64h14.64a10 10 0 0010-10zm-251.75-72.49a48.18 48.18 0 10-48.18 48.18 48.179 48.179 0 0048.18-48.18z" fill="#e48e66"/><path d="M276.07 243.34h-41.96a10 10 0 01-10-10v-36.11a10 10 0 0110-10h190a10 10 0 0110 10v36.11a10 10 0 01-10 10H276.07z" fill="#6fe3ff"/><path d="M328.99 187.23h-87.78l12.57-41.59a20.008 20.008 0 0119.15-14.22h112.36a20 20 0 0119.14 14.22L417 187.23zm80.48 56.11v20.64a5.476 5.476 0 01-5.48 5.48h-16.37a5.476 5.476 0 01-5.48-5.48v-20.64zm-133.4 0v20.64a5.473 5.473 0 01-5.47 5.48h-16.38a5.473 5.473 0 01-5.47-5.48v-20.64z" fill="#f8ec7d"/><path d="M134.18 112.67a48.174 48.174 0 11-37.94 18.48 48.179 48.179 0 0137.94-18.48z" fill="#6fe3ff"/><path d="M89.17 382H249v72h-75.63a7 7 0 000 14h170.04a7 7 0 100-14H263v-72h159.83c25.916 0 47.17-20.844 47.17-46.76V91a47.2 47.2 0 00-47.17-47H89.17A47.2 47.2 0 0042 91v244.24C42 361.156 63.254 382 89.17 382zm333.66-14H89.17A32.979 32.979 0 0156 335.24V307h400v28.24A32.979 32.979 0 01422.83 368zM89.17 58h333.66A33.183 33.183 0 01456 91v202H56V91a33.183 33.183 0 0133.17-33z" fill="#63316d"/><path d="M134.18 216.03a55.18 55.18 0 10-43.449-89.2 55.185 55.185 0 003.342 71.917 55.406 55.406 0 0040.107 17.283zm-32.431-80.561A41.183 41.183 0 1193 160.85a40.968 40.968 0 018.749-25.381z" fill="#63316d"/><path d="M121.178 176.347a7 7 0 009.739.883l26.931-21.91a7 7 0 00-8.835-10.86l-21.63 17.6-7.131-8.346a7 7 0 00-10.644 9.095zM86 242h85a7 7 0 000-14H86a7 7 0 000 14zm0 30h56a7 7 0 000-14H86a7 7 0 000 14zm148.11-22H242v13.98A11.892 11.892 0 00254.22 276h16.38a12.044 12.044 0 0012.4-12.02V250h92v13.98c0 6.881 5.739 12.02 12.62 12.02h16.37A11.714 11.714 0 00416 263.98V250h8.11A16.638 16.638 0 00441 233.34v-36.11A17.124 17.124 0 00424.11 180h-1.91l-11.064-36.71A26.927 26.927 0 00385.29 124H272.93a26.933 26.933 0 00-25.851 19.29L236.013 180h-1.9A17.311 17.311 0 00217 197.23v36.11A16.826 16.826 0 00234.11 250zM269 262h-13v-12h13zm133 0h-13v-12h13zM260.48 147.34a13.017 13.017 0 0112.45-9.34h112.36a13.007 13.007 0 0112.439 9.341L407.572 180h-57.2l15.606-11.33a6.932 6.932 0 001.506-9.727 7.018 7.018 0 00-9.785-1.592L326.7 180h-76.06zM231 197.23a3.3 3.3 0 013.11-3.23h190a3.118 3.118 0 012.89 3.23v36.11a2.638 2.638 0 01-2.89 2.66h-190a2.829 2.829 0 01-3.11-2.66z" fill="#63316d"/><path d="M265.72 223h10.95a7 7 0 000-14h-10.95a7 7 0 000 14zm121.3 0h10.95a7 7 0 000-14h-10.95a7 7 0 000 14zm-72.7-116h29.57a7 7 0 000-14h-29.57a7 7 0 000 14z" fill="#63316d"/></svg>