<?xml version="1.0"?>
<svg xmlns="http://www.w3.org/2000/svg" id="Layer_1" data-name="Layer 1" viewBox="0 0 512 512" width="512" height="512"><title>Vehicle  Service </title><path d="M354.68,353.17l9.14-4.82,54.97-29.65,6.6-3.56a30.014,30.014,0,0,1,39.98,10.93L335.81,415.02a90.714,90.714,0,0,1-56.42,7.97L204.5,409.2a27.889,27.889,0,0,0-20.38,2.7l-40.56,25.64-28.34-92.93.25-.08a48.6,48.6,0,0,0,23.51-11.5l12.41-11.05a82.881,82.881,0,0,1,85.95-8.39l5.14,2.48a59.225,59.225,0,0,0,25.79,5.91H318.1a37.044,37.044,0,0,1,36.58,31.19Z" style="fill:#e48e66"/><path d="M418.75,318.62l.04.08-54.97,29.65-9.14,4.82a36.912,36.912,0,0,0-12.1-21.95l35.33-19.04,8.99-4.84C398.01,301.71,412.59,307.79,418.75,318.62Z" style="fill:#af593c"/><path d="M377.47,311.37l.44.81-35.33,19.04a36.923,36.923,0,0,0-24.48-9.24H307.05L336.44,306A33.959,33.959,0,0,1,377.47,311.37Z" style="fill:#af593c"/><path d="M366,125.58v32.3l-23.64,2.3a88.894,88.894,0,0,1-12.4,29.41l15.28,18.46-22.78,22.77-18.45-15.28a86.2,86.2,0,0,1-29.41,12.4l-2.31,23.93H240l-2.31-23.93a88.685,88.685,0,0,1-29.41-12.4l-18.45,15.28-22.78-22.77,15.28-18.46a86.2,86.2,0,0,1-12.4-29.41L146,157.88v-32.3l23.93-2.3a88.6,88.6,0,0,1,12.4-29.41L167.05,75.41l22.78-22.78,18.45,15.29a86.006,86.006,0,0,1,29.41-12.4L240,31.58h32.29l2.31,23.94a88.477,88.477,0,0,1,29.41,12.4l18.45-15.29,22.49,22.78L329.67,93.87a86.2,86.2,0,0,1,12.4,29.41Zm-46.98,16.15a62.875,62.875,0,1,0-62.88,62.87A62.877,62.877,0,0,0,319.02,141.73Z" style="fill:#f8ec7d"/><path d="M256.14,78.85a62.875,62.875,0,1,1-62.87,62.88A62.877,62.877,0,0,1,256.14,78.85Z" style="fill:#6fe3ff"/><path d="M143.56,437.54l13.07,42.88h-90l-20-164h60l8.59,28.19Zm-24.64,14.18a12,12,0,1,0-12,12A12,12,0,0,0,118.92,451.72Z" style="fill:#6fe3ff"/><path d="M59.682,481.057A6.819,6.819,0,0,0,66.63,487h90a6.711,6.711,0,0,0,6.7-8.726l-11.514-37.722L187.688,417.9a20.8,20.8,0,0,1,15.107-1.924c.144.037.291.075.437.1l74.911,13.8a98.357,98.357,0,0,0,60.774-8.584,7.014,7.014,0,0,0,.854-.5l129.561-88.95a7,7,0,0,0,2.035-9.38,36.957,36.957,0,0,0-49.3-13.481l-1.2.649c-9.433-10.651-25.107-14.627-37.129-8.532l-.154.08-4.381,2.36a41.008,41.008,0,0,0-46.183-3.633L305.27,315h-37a52.528,52.528,0,0,1-22.748-5.225l-5.133-2.481a89.524,89.524,0,0,0-93.209,9.1c-.154.115-.3.236-.446.363L134.325,327.8a41.58,41.58,0,0,1-14.363,8.34l-6.636-21.973a7.194,7.194,0,0,0-6.7-5.17h-60a7.216,7.216,0,0,0-5.241,2.569,7,7,0,0,0-1.707,5.488ZM390.134,313.549c5.683-2.835,12.711-.927,17.751,3.08l-47.329,25.529-1.454.767a44.111,44.111,0,0,0-5.361-9.769Zm-50.35-1.4q.084-.045.165-.093a26.986,26.986,0,0,1,25.209-.953L343.273,322.9a43.965,43.965,0,0,0-12.267-5.972ZM143.636,338.258,155.825,327.4A75.584,75.584,0,0,1,234.3,319.9l5.134,2.486A66.608,66.608,0,0,0,268.27,329H318.1a30.032,30.032,0,0,1,29.133,22.67l-34.265-1.55a216.958,216.958,0,0,0-39.57,1.828,7,7,0,0,0,1.924,13.866,203.113,203.113,0,0,1,37.013-1.711l42.5,1.92c.105,0,.211.007.315.007a7,7,0,0,0,7-7q0-.933-.042-1.864l5.036-2.655L428.718,321.3a22.977,22.977,0,0,1,26.48,3.265l-122.932,84.4a84.255,84.255,0,0,1-51.609,7.144l-74.682-13.752a34.756,34.756,0,0,0-25.266,3.433c-.111.063-.222.128-.329.2l-32.8,20.735-23.53-77.172A55.575,55.575,0,0,0,143.636,338.258ZM101.445,323l35.419,116.372v-.106L147.179,473H72.828L54.535,323Z" style="fill:#63316d"/><path d="M106.92,470.72a19,19,0,1,0-19-19A19.022,19.022,0,0,0,106.92,470.72Zm0-24a5,5,0,1,1-5,5A5.006,5.006,0,0,1,106.92,446.72Z" style="fill:#63316d"/><path d="M145.33,164.848l18.991,1.825a93.994,93.994,0,0,0,9.4,22.341l-12.063,14.572A7,7,0,0,0,162.1,213l22.78,22.771a7,7,0,0,0,9.413.44l14.6-12.093a95.833,95.833,0,0,0,22.3,9.427l1.833,19.062A7.058,7.058,0,0,0,240,259h32.29a7.058,7.058,0,0,0,6.968-6.393l1.833-19.026a94.061,94.061,0,0,0,22.342-9.414L318,236.219a7,7,0,0,0,9.413-.444L350.188,213a7,7,0,0,0,.445-9.416l-12.1-14.614a96.009,96.009,0,0,0,9.43-22.305l18.713-1.821A7,7,0,0,0,373,157.88v-32.3a7,7,0,0,0-6.33-6.968l-18.991-1.825a93.977,93.977,0,0,0-9.4-22.341l12.063-14.572a7,7,0,0,0-.411-9.382l-22.491-22.78a7,7,0,0,0-9.448-.472l-14.6,12.1a95.627,95.627,0,0,0-22.3-9.428l-1.833-18.794A6.822,6.822,0,0,0,272.29,25H240a6.822,6.822,0,0,0-6.968,6.118l-1.833,18.9a93.59,93.59,0,0,0-22.341,9.348L194.3,47.266a7,7,0,0,0-9.417.427L162.1,70.467a7,7,0,0,0-.443,9.41l12.094,14.609a95.62,95.62,0,0,0-9.426,22.3l-18.995,1.826A7,7,0,0,0,139,125.58v32.3A7,7,0,0,0,145.33,164.848ZM153,131.939l17.6-1.691a7,7,0,0,0,6.171-5.487,81.836,81.836,0,0,1,11.438-27.092,7,7,0,0,0-.486-8.262L176.505,75.854l13.767-13.767L203.813,73.31a7,7,0,0,0,8.352.433,79.177,79.177,0,0,1,27-11.38,6.763,6.763,0,0,0,5.493-5.961l1.7-17.4h19.576l1.7,17.4a6.881,6.881,0,0,0,5.493,6.066,81.571,81.571,0,0,1,27.089,11.386,7,7,0,0,0,8.263-.518l13.509-11.209,13.535,13.7L324.277,89.41a7,7,0,0,0-.43,8.347,79.378,79.378,0,0,1,11.382,27,7,7,0,0,0,6.171,5.486l17.6,1.691v19.589l-17.317,1.685a7,7,0,0,0-6.164,5.486,82.18,82.18,0,0,1-11.444,27.1,7,7,0,0,0,.492,8.254L335.784,207.6l-13.766,13.761-13.543-11.216a7,7,0,0,0-8.35-.432A79.388,79.388,0,0,1,273.118,221.1a7.075,7.075,0,0,0-5.486,6.234L265.933,245H246.357l-1.7-17.667a7.038,7.038,0,0,0-5.486-6.2,81.987,81.987,0,0,1-27.1-11.456,7,7,0,0,0-8.261.482l-13.543,11.212-13.766-13.763,11.217-13.552a7,7,0,0,0,.43-8.348A79.4,79.4,0,0,1,176.771,158.7a7,7,0,0,0-6.171-5.486L153,151.521Z" style="fill:#63316d"/><path d="M256.14,211.6a69.875,69.875,0,1,0-69.87-69.87A69.954,69.954,0,0,0,256.14,211.6Zm0-125.75a55.875,55.875,0,1,1-55.87,55.88A55.943,55.943,0,0,1,256.14,85.85Z" style="fill:#63316d"/><path d="M243.659,163.1a7,7,0,0,0,9.781,0l33.5-32.72a7,7,0,1,0-9.781-10.016l-28.61,27.944-13.708-13.385a7,7,0,1,0-9.781,10.018Z" style="fill:#63316d"/></svg>
