<svg height="512" width="512" xmlns="http://www.w3.org/2000/svg"><g id="filled_outline" data-name="filled outline"><path d="M406.091 456A87.961 87.961 0 00488 400h-62.2l-27.709-16v-32l27.709-16H488a87.97 87.97 0 00-155.61-16H272v96h60.39a87.87 87.87 0 0073.701 40z" fill="#d9d9d9"/><path d="M319.614 352H280v32h39.614a84.806 84.806 0 010-32zm70.472 77.68a8 8 0 01-2.281-.336 64.017 64.017 0 010-122.688 8 8 0 114.562 15.328 48.028 48.028 0 000 92.032 8 8 0 01-2.281 15.664z" fill="#cdcdcd"/><path d="M453.512 384v-32L425.8 336l-27.713 16v32l27.713 16z" fill="#b9b9b9"/><path d="M398.087 352v9.239l47.425 27.379 8-4.618v-9.241l-47.424-27.378z" fill="#cdcdcd"/><path d="M280 424h-56V286.313l8-6.313a48 48 0 0148 48z" fill="#eaeae8"/><path d="M80 416v-72H24v104a16 16 0 0016 16h216z" fill="#fec9a3"/><path d="M80 344H24v-16a48 48 0 0148-48l8-1z" fill="#eaeae8"/><path d="M96 176H80a24 24 0 01-24-24 24 24 0 0124-24h16zm112 0h16a24 24 0 0024-24 24 24 0 00-24-24h-16z" fill="#f7bb8f"/><path d="M232 416V280l-48-16h-64l-48 16v136z" fill="#4298d1"/><path d="M176 376h16v16h-16z" fill="#3981b7"/><path d="M72 416v-8l-16 8 16 48h176a15.816 15.816 0 004.836-.825z" fill="#f7bb8f"/><path d="M120 224v40l32 48 32-48v-40z" fill="#fec9a3"/><path d="M120 239.368a63.63 63.63 0 0064 0V224h-64z" fill="#f7bb8f"/><path d="M152 240a64 64 0 01-64-64v-72h128v72a64 64 0 01-64 64z" fill="#fec9a3"/><circle cx="120" cy="160" fill="#905638" r="8"/><circle cx="184" cy="160" fill="#905638" r="8"/><path d="M160 184h-16a7.992 7.992 0 01-7.586-10.531l8-24a8 8 0 1115.172 5.062L155.1 168h4.9a8 8 0 010 16z" fill="#905638"/><path d="M216 104H88V72a32 32 0 0132-32h64a32 32 0 0132 32z" fill="#3981b7"/><path d="M152 215.984a30.528 30.528 0 01-21.656-8.953 8 8 0 0111.312-11.312 14.646 14.646 0 0020.688 0 8 8 0 0111.312 11.312A30.528 30.528 0 01152 215.984z" fill="#905638"/><g fill="#3981b7"><path d="M152 424a8 8 0 01-8-8v-96a8 8 0 0116 0v96a8 8 0 01-8 8z"/><path d="M128 336l24-24-32-56-24 16zm48 0l-24-24 32-56 24 16z"/></g><path d="M88 104h128v24H88z" fill="#f7bb8f"/><path d="M88 104l6.111 12.223A64.723 64.723 0 00152 152a64.723 64.723 0 0057.889-35.777L216 104z" fill="#69b9e7"/><path d="M232 344v72h-96l-32-16-32 16 16 48h176a16 16 0 0016-16V344z" fill="#fec9a3"/><path d="M152 215.985a30.531 30.531 0 0021.656-8.955 8 8 0 00-11.312-11.314 14.646 14.646 0 01-20.688 0 8 8 0 10-11.312 11.314A30.531 30.531 0 00152 215.985zM176 376h16v16h-16z"/><path d="M494.607 340.511a8 8 0 00.843-7.424A95.884 95.884 0 00332.108 306.9a96.211 96.211 0 00-3.93 5.1H285.7a56.224 56.224 0 00-52.35-39.984l-21.8-7.268L192 251.719v-15.886A72.06 72.06 0 00223.545 184H224a32 32 0 000-64V72a40.045 40.045 0 00-40-40h-64a40.045 40.045 0 00-40 40v48a32 32 0 000 64h.455A72.06 72.06 0 00112 235.833v15.886l-19.544 13.029-21.863 7.288A56.053 56.053 0 0016 328v120a24.028 24.028 0 0024 24h224a24.028 24.028 0 0024-24v-24h40.176a95.909 95.909 0 00167.274-21.087A8 8 0 00488 392h-31.767l1.787-1.031.027-.016.044-.025c.077-.045.146-.1.221-.149a7.486 7.486 0 00.636-.425c.1-.074.183-.159.276-.237.174-.146.35-.289.512-.451.12-.12.225-.253.337-.379s.243-.262.354-.406a7.987 7.987 0 00.609-.915 8.229 8.229 0 00.4-.816c.035-.081.063-.163.095-.244q.134-.339.234-.684c.024-.081.047-.161.067-.242a7.957 7.957 0 00.175-.869c0-.021.009-.042.011-.064a8 8 0 00.065-.977V352a8 8 0 00-4-6.928l-1.85-1.072H488a8 8 0 006.607-3.489zM224 136a16 16 0 010 32zM80 168a16 16 0 010-32zm132.052 113.784L224 285.767V408h-64v-76.686l10.343 10.343A8 8 0 00176 344a7.914 7.914 0 001.281-.1 8 8 0 005.874-4.318zM152 295.875l-24-42v-10a71.831 71.831 0 0048 0v10zm45.687-21.136L173.809 322.5l-11.831-11.831 24.715-43.254zM96 72a24.028 24.028 0 0124-24h64a24.028 24.028 0 0124 24v24H96zm107.056 40l-.323.645a56.721 56.721 0 01-101.466 0l-.323-.645zM96 176v-42.295a72.075 72.075 0 0022.885 18.382 8 8 0 107.7 3.378 72.56 72.56 0 0014.581 3.732l-4.756 14.273A8 8 0 00144 184h16a8 8 0 000-16h-4.9l2.746-8.239a72.741 72.741 0 0019.567-4.3 8 8 0 107.7-3.378A72.075 72.075 0 00208 133.705V176a56.027 56.027 0 01-28.53 48.771 8.074 8.074 0 00-1.064.6 55.878 55.878 0 01-52.812 0 8.074 8.074 0 00-1.064-.6A56.027 56.027 0 0196 176zm21.307 91.41l24.715 43.254-11.831 11.836-23.878-47.756zM32 328a40.069 40.069 0 0132-39.195V336H32zm8 128a8.009 8.009 0 01-8-8v-96h32v64c0 .046.006.091.007.137a8.958 8.958 0 00.053.801c.017.15.042.3.068.45.02.111.038.222.062.332s.061.244.094.365.068.259.109.386c.007.019.011.039.017.059L76.9 456zm40-112v-58.233l11.948-3.983 28.9 57.794a8 8 0 005.874 4.318A7.914 7.914 0 00128 344a8 8 0 005.657-2.343L144 331.314V408h-6.111l-30.311-15.155a8 8 0 00-7.156 0L80 403.056zm192 40v64a8.009 8.009 0 01-8 8H93.766l-11.983-35.947L104 408.944l28.422 14.211A7.994 7.994 0 00136 424h96a8 8 0 008-8v-64h32zm0-48h-32v-47.206A40.141 40.141 0 01272 328zm16 24h22.447c-.238 2.693-.356 5.349-.356 8s.118 5.307.356 8H288zm138.378-32c-.046 0-.091.008-.136.009-.257 0-.511.021-.764.05-.082.009-.163.017-.244.029a8.035 8.035 0 00-1.821.488c-.077.03-.152.065-.228.1-.231.1-.456.211-.678.334-.042.023-.087.039-.129.063l-27.713 16c-.02.012-.037.027-.057.038a8.063 8.063 0 00-.816.547c-.016.011-.029.025-.043.036a8 8 0 00-.673.592l-.172.175q-.25.262-.48.55c-.053.067-.109.132-.16.2a7.983 7.983 0 00-.5.758l-.041.07a7.952 7.952 0 00-.4.813c-.035.081-.064.163-.1.244q-.132.339-.233.684a6.72 6.72 0 00-.068.243 8.178 8.178 0 00-.174.868c0 .021-.009.042-.012.064a7.806 7.806 0 00-.064.977v32.07a8 8 0 004 6.929l27.713 16c.008.005.017.008.025.012.186.106.381.192.574.283.122.057.24.125.365.176.181.074.37.128.556.188.144.047.284.1.43.143.2.054.412.086.619.123.132.025.261.061.395.078a8.076 8.076 0 001.044.069h48.939a79.908 79.908 0 01-136.236 3.628 8 8 0 00-6.7-3.628H288V392h31.614a8 8 0 007.868-9.448 76.814 76.814 0 010-29.1 8 8 0 00-7.868-9.452H288v-16h44.39a8 8 0 006.7-3.627 80.76 80.76 0 015.355-7.279A79.891 79.891 0 01475.325 328zm-11.713 24l11.713-6.763 19.713 11.382v13.525zm23.426 32l-11.713 6.763-19.713-11.382v-13.525z"/><path d="M387.808 306.651a64.022 64.022 0 000 122.7 8 8 0 104.564-15.336 48.021 48.021 0 010-92.026 8 8 0 00-4.564-15.336z"/></g></svg>