<svg xmlns="http://www.w3.org/2000/svg" id="Layer_1" data-name="Layer 1" width="512" height="512"><path d="M354.68 353.17l9.14-4.82 54.97-29.65 6.6-3.56a30.014 30.014 0 0139.98 10.93l-129.56 88.95a90.714 90.714 0 01-56.42 7.97L204.5 409.2a27.889 27.889 0 00-20.38 2.7l-40.56 25.64-28.34-92.93.25-.08a48.6 48.6 0 0023.51-11.5l12.41-11.05a82.881 82.881 0 0185.95-8.39l5.14 2.48a59.225 59.225 0 0025.79 5.91h49.83a37.044 37.044 0 0136.58 31.19z" fill="#e48e66"/><path d="M418.75 318.62l.04.08-54.97 29.65-9.14 4.82a36.912 36.912 0 00-12.1-21.95l35.33-19.04 8.99-4.84c11.11-5.63 25.69.45 31.85 11.28z" fill="#af593c"/><path d="M377.47 311.37l.44.81-35.33 19.04a36.923 36.923 0 00-24.48-9.24h-11.05L336.44 306a33.959 33.959 0 0141.03 5.37z" fill="#af593c"/><path d="M366 125.58v32.3l-23.64 2.3a88.894 88.894 0 01-12.4 29.41l15.28 18.46-22.78 22.77-18.45-15.28a86.2 86.2 0 01-29.41 12.4l-2.31 23.93H240l-2.31-23.93a88.685 88.685 0 01-29.41-12.4l-18.45 15.28-22.78-22.77 15.28-18.46a86.2 86.2 0 01-12.4-29.41l-23.93-2.3v-32.3l23.93-2.3a88.6 88.6 0 0112.4-29.41l-15.28-18.46 22.78-22.78 18.45 15.29a86.006 86.006 0 0129.41-12.4L240 31.58h32.29l2.31 23.94a88.477 88.477 0 0129.41 12.4l18.45-15.29 22.49 22.78-15.28 18.46a86.2 86.2 0 0112.4 29.41zm-46.98 16.15a62.875 62.875 0 10-62.88 62.87 62.877 62.877 0 0062.88-62.87z" fill="#f8ec7d"/><path d="M256.14 78.85a62.875 62.875 0 11-62.87 62.88 62.877 62.877 0 0162.87-62.88zM143.56 437.54l13.07 42.88h-90l-20-164h60l8.59 28.19zm-24.64 14.18a12 12 0 10-12 12 12 12 0 0012-12z" fill="#6fe3ff"/><path d="M59.682 481.057A6.819 6.819 0 0066.63 487h90a6.711 6.711 0 006.7-8.726l-11.514-37.722 35.872-22.652a20.8 20.8 0 0115.107-1.924c.144.037.291.075.437.1l74.911 13.8a98.357 98.357 0 0060.774-8.584 7.014 7.014 0 00.854-.5l129.561-88.95a7 7 0 002.035-9.38 36.957 36.957 0 00-49.3-13.481l-1.2.649c-9.433-10.651-25.107-14.627-37.129-8.532l-.154.08-4.381 2.36a41.008 41.008 0 00-46.183-3.633L305.27 315h-37a52.528 52.528 0 01-22.748-5.225l-5.133-2.481a89.524 89.524 0 00-93.209 9.1 7.68 7.68 0 00-.446.363L134.325 327.8a41.58 41.58 0 01-14.363 8.34l-6.636-21.973a7.194 7.194 0 00-6.7-5.17h-60a7.216 7.216 0 00-5.241 2.569 7 7 0 00-1.707 5.488zm330.452-167.508c5.683-2.835 12.711-.927 17.751 3.08l-47.329 25.529-1.454.767a44.111 44.111 0 00-5.361-9.769zm-50.35-1.4q.084-.045.165-.093a26.986 26.986 0 0125.209-.953L343.273 322.9a43.965 43.965 0 00-12.267-5.972zm-196.148 26.109l12.189-10.858a75.584 75.584 0 0178.475-7.5l5.134 2.486A66.608 66.608 0 00268.27 329h49.83a30.032 30.032 0 0129.133 22.67l-34.265-1.55a216.958 216.958 0 00-39.57 1.828 7 7 0 001.924 13.866 203.113 203.113 0 0137.013-1.711l42.5 1.92c.105 0 .211.007.315.007a7 7 0 007-7q0-.933-.042-1.864l5.036-2.655 61.574-33.211a22.977 22.977 0 0126.48 3.265l-122.932 84.4a84.255 84.255 0 01-51.609 7.144l-74.682-13.752a34.756 34.756 0 00-25.266 3.433 5.06 5.06 0 00-.329.2l-32.8 20.735-23.53-77.172a55.575 55.575 0 0019.586-11.295zM101.445 323l35.419 116.372v-.106L147.179 473H72.828L54.535 323z" fill="#63316d"/><path d="M106.92 470.72a19 19 0 10-19-19 19.022 19.022 0 0019 19zm0-24a5 5 0 11-5 5 5.006 5.006 0 015-5zm38.41-281.872l18.991 1.825a93.994 93.994 0 009.4 22.341l-12.063 14.572A7 7 0 00162.1 213l22.78 22.771a7 7 0 009.413.44l14.6-12.093a95.833 95.833 0 0022.3 9.427l1.833 19.062A7.058 7.058 0 00240 259h32.29a7.058 7.058 0 006.968-6.393l1.833-19.026a94.061 94.061 0 0022.342-9.414L318 236.219a7 7 0 009.413-.444L350.188 213a7 7 0 00.445-9.416l-12.1-14.614a96.009 96.009 0 009.43-22.305l18.713-1.821A7 7 0 00373 157.88v-32.3a7 7 0 00-6.33-6.968l-18.991-1.825a93.977 93.977 0 00-9.4-22.341l12.063-14.572a7 7 0 00-.411-9.382l-22.491-22.78a7 7 0 00-9.448-.472l-14.6 12.1a95.627 95.627 0 00-22.3-9.428l-1.833-18.794A6.822 6.822 0 00272.29 25H240a6.822 6.822 0 00-6.968 6.118l-1.833 18.9a93.59 93.59 0 00-22.341 9.348l-14.558-12.1a7 7 0 00-9.417.427L162.1 70.467a7 7 0 00-.443 9.41l12.094 14.609a95.62 95.62 0 00-9.426 22.3l-18.995 1.826a7 7 0 00-6.33 6.968v32.3a7 7 0 006.33 6.968zm7.67-32.909l17.6-1.691a7 7 0 006.171-5.487 81.836 81.836 0 0111.438-27.092 7 7 0 00-.486-8.262l-11.218-13.553 13.767-13.767 13.541 11.223a7 7 0 008.352.433 79.177 79.177 0 0127-11.38 6.763 6.763 0 005.493-5.961l1.7-17.4h19.576l1.7 17.4a6.881 6.881 0 005.493 6.066 81.571 81.571 0 0127.089 11.386 7 7 0 008.263-.518l13.509-11.209 13.535 13.7-11.246 13.583a7 7 0 00-.43 8.347 79.378 79.378 0 0111.382 27 7 7 0 006.171 5.486l17.6 1.691v19.589l-17.317 1.685a7 7 0 00-6.164 5.486 82.18 82.18 0 01-11.444 27.1 7 7 0 00.492 8.254l11.217 13.552-13.766 13.761-13.543-11.216a7 7 0 00-8.35-.432 79.388 79.388 0 01-27.007 11.387 7.075 7.075 0 00-5.486 6.234L265.933 245h-19.576l-1.7-17.667a7.038 7.038 0 00-5.486-6.2 81.987 81.987 0 01-27.1-11.456 7 7 0 00-8.261.482l-13.543 11.212-13.766-13.763 11.217-13.552a7 7 0 00.43-8.348 79.4 79.4 0 01-11.377-27.008 7 7 0 00-6.171-5.486l-17.6-1.693z" fill="#63316d"/><path d="M256.14 211.6a69.875 69.875 0 10-69.87-69.87 69.954 69.954 0 0069.87 69.87zm0-125.75a55.875 55.875 0 11-55.87 55.88 55.943 55.943 0 0155.87-55.88z" fill="#63316d"/><path d="M243.659 163.1a7 7 0 009.781 0l33.5-32.72a7 7 0 10-9.781-10.016l-28.61 27.944-13.708-13.385a7 7 0 10-9.781 10.018z" fill="#63316d"/></svg>