<svg id="Capa_1" height="512" width="512" xmlns="http://www.w3.org/2000/svg"><path d="M343.925 504.497H109.268l5.724-27.879c4.708-22.956 22.594-40.402 44.788-45.101a57.84 57.84 0 0112.054-1.26h109.524c4.112 0 8.147.43 12.044 1.26 22.194 4.699 40.09 22.145 44.798 45.101z" fill="#e7ecf1"/><path d="M195.407 430.25c-2.347 0-4.646.431-6.868 1.264-12.635 4.703-22.817 22.146-25.499 45.098l-3.257 27.884h-50.519l5.719-27.884c4.713-22.951 22.597-40.394 44.791-45.098a57.63 57.63 0 0112.05-1.264z" fill="#c6d0da"/><path d="M259.057 376.042v54.215c0 17.925-14.535 32.46-32.46 32.46-17.935 0-32.47-14.535-32.47-32.46v-54.215z" fill="#ffcbbe"/><path d="M237.198 460.947a32.513 32.513 0 01-10.599 1.768c-17.935 0-32.47-14.535-32.47-32.46V376.04h21.197v54.215c0 14.223 9.143 26.306 21.872 30.692z" fill="#eaac9d"/><path d="M194.126 376.042h64.931v49.946h-64.931zm-112.668-6.007c-22.946 4.62-45.293-10.236-49.913-33.182a42.532 42.532 0 01-.831-9.395c.584-24.956 36.509-28.116 41.437-3.644l265.903-53.539c-4.927-24.471 29.422-35.461 39.618-12.676a42.522 42.522 0 012.87 8.985c4.62 22.946-10.236 45.293-33.182 49.913" fill="#eaac9d"/><path d="M265.836 412.378l-72.099 14.517C140.22 437.671 88.1 403.022 77.324 349.504L49.806 212.838l265.903-53.539 27.518 136.666c10.776 53.517-23.873 105.637-77.391 116.413z" fill="#ffcbbe"/><path d="M257.39 414.078l-63.653 12.817c-53.512 10.775-105.638-23.879-116.413-77.391L49.805 212.832l63.653-12.817 27.519 136.672c10.775 53.512 62.892 88.168 116.413 77.391z" fill="#eaac9d"/><g fill="#e490b7"><ellipse cx="289.978" cy="313.855" rx="22.2" ry="13.499" transform="rotate(-11.37 290.603 314.432)"/><ellipse cx="133.347" cy="345.392" rx="22.2" ry="13.499" transform="rotate(-11.37 133.669 346.058)"/></g><path d="M97.014 104.621l-41.146 8.285c-25.563 5.147-42.113 30.042-36.966 55.605l12.621 62.682c2.566 12.744 14.978 20.996 27.722 18.429l28.927-5.824c38.103-7.672 62.773-44.78 55.101-82.884l-5.937-29.487c-3.732-18.537-21.785-30.539-40.322-26.806z" fill="#f4dd45"/><path d="M96.764 104.665c-25.559 5.146-42.109 30.042-36.961 55.61L77.07 246.03l-17.824 3.589c-12.744 2.566-25.156-5.685-27.722-18.429l-12.62-62.679c-5.148-25.569 11.402-50.464 36.961-55.61z" fill="#eab14d"/><path d="M259.471 197.578l-64.073 12.901c-34.69 6.985-68.475-15.475-75.46-50.165l-7.973-39.599c-6.985-34.69 15.475-68.475 50.165-75.46L349.637 7.5l8.415 41.791c13.725 68.17-30.41 134.561-98.581 148.287z" fill="#f4dd45"/><path d="M250.784 199.323l-55.389 11.153c-34.695 6.986-68.472-15.469-75.457-50.164l-7.973-39.598c-6.986-34.695 15.469-68.472 50.164-75.457l55.389-11.153c-34.695 6.986-57.149 40.763-50.164 75.457l7.973 39.598c6.985 34.695 40.762 57.15 75.457 50.164z" fill="#eab14d"/><circle cx="428.098" cy="167.739" fill="#d0e2e7" r="65.937"/><path d="M384.512 254.535c-6.116-13.668-20.351-20.03-34.612-15.463-3.584 1.147-6.766 2.855-9.475 5.002l-14.622-72.609c32.523-30.575 49.035-76.766 39.595-123.654l-8.415-41.79A7.502 7.502 0 00348.15.149L160.644 37.903c-18.742 3.774-34.893 14.62-45.476 30.54-5.713 8.594-9.415 18.114-11.038 28.001a41.88 41.88 0 00-8.597.824l-41.149 8.285c-29.573 5.955-48.789 34.86-42.835 64.434l12.622 62.689c2.724 13.529 13.916 23.23 26.945 24.711l8.696 43.185c-3.326-.929-6.919-1.272-10.667-.944-14.918 1.311-25.582 12.683-25.933 27.653a50.11 50.11 0 00.977 11.051c4.763 23.655 25.628 40.04 48.885 40.04 2.063 0 4.148-.145 6.24-.409a105.553 105.553 0 0013.777 20.802 7.481 7.481 0 005.719 2.643 7.5 7.5 0 005.711-12.357c-9.938-11.694-16.804-25.879-19.852-41.024L66.117 255.89l23.534-4.739c24.215-4.875 44.525-20.969 54.977-42.959 11.203 7.059 24.357 11.053 38.096 11.053 4.667 0 9.404-.46 14.15-1.416l64.073-12.901c19.284-3.883 36.76-11.77 51.741-22.618l17.992 89.344.017.098h.002l5.175 25.697c9.937 49.374-22.15 97.634-71.528 107.577l-72.089 14.52c-23.241 4.674-47.052.244-67.044-12.475a7.5 7.5 0 00-8.052 12.656 106.828 106.828 0 0023.163 11.083 65.48 65.48 0 00-32.681 44.296l-5.729 27.884a7.5 7.5 0 007.346 9.009h234.664a7.5 7.5 0 007.346-9.009l-5.728-27.884c-5.246-25.546-25.105-45.536-50.579-50.923a65.225 65.225 0 00-13.609-1.43h-14.803v-2.87l.754-.152c47.886-9.644 81.797-50.241 85.102-96.757 24.914-6.943 40.667-32.123 35.481-57.876a50.202 50.202 0 00-3.376-10.563zm-330.736 103c-7.759-5.158-13.045-13.029-14.884-22.163a35.085 35.085 0 01-.686-7.739c.207-8.864 6.729-12.576 12.25-13.062 5.492-.481 12.523 2.014 14.31 10.615l.073.362c-6.083-1.246-11.976-.19-17.034 3.139a7.5 7.5 0 108.248 12.529c4.316-2.843 9.695.211 12.373 2.147l1.535 7.625c.845 4.2 1.951 8.335 3.29 12.386-6.879.049-13.618-1.944-19.475-5.839zm32.912-121.086l-28.923 5.824c-8.662 1.745-17.144-3.887-18.89-12.557l-12.622-62.689c-4.322-21.466 9.625-42.446 31.091-46.768l41.149-8.285a26.863 26.863 0 014.775-.52 72.575 72.575 0 001.339 10.742l7.973 39.599c2.922 14.509 10.075 27.102 19.903 36.778-7.927 19.381-25.093 33.708-45.795 37.876zm171.296-46.223l-64.073 12.901c-30.584 6.155-60.469-13.712-66.627-44.293l-7.973-39.599c-2.983-14.814-.019-29.903 8.348-42.487 8.365-12.584 21.131-21.157 35.945-24.14l180.154-36.274 6.935 34.438c12.888 64.007-28.701 126.566-92.709 139.454zm33.859 248.631c19.65 4.155 34.961 19.569 39.006 39.268L334.726 497h-216.27l3.879-18.879a50.47 50.47 0 0139.012-39.268 50.232 50.232 0 0110.481-1.099h15.513c3.521 18.461 19.776 32.463 39.247 32.463s35.726-14.001 39.247-32.463h15.519c3.539 0 7.062.37 10.489 1.103zm-40.292-8.603c0 13.765-11.198 24.963-24.963 24.963-12.86 0-23.477-9.775-24.817-22.285l49.78-10.027zm116.486-135.995c-3.893 5.856-9.333 10.301-15.693 12.92a106.796 106.796 0 00-1.767-12.689l-1.536-7.627c1.718-2.822 5.494-7.719 10.58-6.769a7.498 7.498 0 008.75-5.995 7.499 7.499 0 00-5.994-8.75c-5.957-1.112-11.797.196-16.923 3.7l-.06-.3c-1.721-8.662 3.809-13.704 9.077-15.39 5.278-1.689 12.728-.79 16.35 7.303a35.154 35.154 0 012.364 7.402c1.838 9.133.01 18.436-5.148 26.195z"/><path d="M203.101 308.804c.49 0 .989-.048 1.488-.149l26.29-5.293a7.5 7.5 0 00-2.961-14.705l-26.29 5.293a7.5 7.5 0 001.473 14.854zm-40.784-50.167a7.497 7.497 0 00-8.681-6.095l-38.224 6.689a7.5 7.5 0 002.586 14.775l13.439-2.352c-1.957 4.373-2.546 10.431-1.263 16.807 2.141 10.63 8.733 18.455 15.188 18.454.518 0 1.036-.05 1.55-.154 3.363-.677 6.082-3.487 7.656-7.914 1.566-4.404 1.812-9.887.694-15.439-1.117-5.552-3.467-10.512-6.615-13.967-.223-.244-.452-.457-.678-.681l8.252-1.444a7.498 7.498 0 006.096-8.679zm138.465-29.88a7.501 7.501 0 00-9.425-4.866l-36.97 11.793a7.5 7.5 0 004.559 14.292l7.773-2.479c-.992 3.903-1.115 8.605-.129 13.499 2.141 10.63 8.732 18.455 15.187 18.454.518 0 1.036-.05 1.55-.154 3.363-.677 6.083-3.487 7.657-7.914 1.566-4.404 1.812-9.887.694-15.439-1.185-5.887-3.739-10.902-6.876-14.215l11.113-3.545a7.502 7.502 0 004.867-9.426zM169.704 367.11a7.5 7.5 0 007.5 7.5h21.66c4.143 0 7.5-3.358 7.5-7.5s-3.357-7.5-7.5-7.5h-21.66a7.5 7.5 0 00-7.5 7.5zm258.39-272.809c-40.495 0-73.439 32.945-73.439 73.44s32.944 73.44 73.439 73.44c13.93 0 27.489-3.922 39.212-11.343a7.5 7.5 0 00-8.024-12.674c-9.318 5.899-20.103 9.017-31.188 9.017-32.224 0-58.439-26.216-58.439-58.44s26.216-58.44 58.439-58.44c32.225 0 58.44 26.216 58.44 58.44a58.317 58.317 0 01-8.62 30.562 7.5 7.5 0 0012.779 7.855 73.319 73.319 0 0010.841-38.417c0-40.495-32.945-73.44-73.44-73.44z"/><path d="M428.093 121.025a7.5 7.5 0 00-7.5 7.5v39.214a7.5 7.5 0 007.5 7.5h19.231c4.143 0 7.5-3.358 7.5-7.5s-3.357-7.5-7.5-7.5h-11.731v-31.714a7.5 7.5 0 00-7.5-7.5z"/></svg>